<?xml version="1.0" encoding="UTF-8" standalone="no"?>
<!-- Created with Inkscape (http://www.inkscape.org/) -->

<svg
   width="210mm"
   height="210mm"
   viewBox="0 0 210 210"
   version="1.1"
   id="svg1"
   xml:space="preserve"
   inkscape:version="1.4.3 (fcd0343856, 2026-01-01)"
   sodipodi:docname="icon.svg"
   xmlns:inkscape="http://www.inkscape.org/namespaces/inkscape"
   xmlns:sodipodi="http://sodipodi.sourceforge.net/DTD/sodipodi-0.dtd"
   xmlns:xlink="http://www.w3.org/1999/xlink"
   xmlns="http://www.w3.org/2000/svg"
   xmlns:svg="http://www.w3.org/2000/svg"><sodipodi:namedview
     id="namedview1"
     pagecolor="#ffffff"
     bordercolor="#000000"
     borderopacity="0.25"
     inkscape:showpageshadow="2"
     inkscape:pageopacity="0.0"
     inkscape:pagecheckerboard="0"
     inkscape:deskcolor="#d1d1d1"
     inkscape:document-units="mm"
     inkscape:zoom="0.63662879"
     inkscape:cx="470.44683"
     inkscape:cy="855.28648"
     inkscape:window-width="2560"
     inkscape:window-height="2120"
     inkscape:window-x="2560"
     inkscape:window-y="1257"
     inkscape:window-maximized="0"
     inkscape:current-layer="layer1" /><defs
     id="defs1"><linearGradient
       id="linearGradient8"
       inkscape:collect="always"><stop
         style="stop-color:#ffbd71;stop-opacity:1;"
         offset="0"
         id="stop9" /><stop
         style="stop-color:#d57c04;stop-opacity:1;"
         offset="1"
         id="stop8" /></linearGradient><linearGradient
       id="linearGradient6"
       inkscape:collect="always"><stop
         style="stop-color:#3c3f72;stop-opacity:1;"
         offset="0"
         id="stop6" /><stop
         style="stop-color:#304094;stop-opacity:1;"
         offset="1"
         id="stop7" /></linearGradient><linearGradient
       inkscape:collect="always"
       xlink:href="#linearGradient6"
       id="linearGradient7"
       x1="31.500137"
       y1="15.783144"
       x2="199.51233"
       y2="205.92873"
       gradientUnits="userSpaceOnUse" /><radialGradient
       inkscape:collect="always"
       xlink:href="#linearGradient8"
       id="radialGradient9"
       cx="105.08515"
       cy="87.037422"
       fx="105.08515"
       fy="87.037422"
       r="75.701321"
       gradientTransform="matrix(1.0094617,-5.2436103e-8,0,1.1979652,-1.0796459,-13.580245)"
       gradientUnits="userSpaceOnUse" /></defs><g
     inkscape:label="Layer 1"
     inkscape:groupmode="layer"
     id="layer1"><rect
       style="fill:url(#linearGradient7);stroke-width:1.43894;stroke-linecap:round;fill-opacity:1;stroke:none"
       id="rect1"
       width="186.95786"
       height="186.95786"
       x="11.521072"
       y="11.521072"
       rx="15.728292"
       ry="15.728292" /><path
       id="path1"
       style="baseline-shift:baseline;display:inline;overflow:visible;vector-effect:none;fill:#fa9d1d;stroke-linecap:round;stroke-dasharray:7.25492, 7.25492;enable-background:accumulate;stop-color:#000000;stop-opacity:1;opacity:1"
       d="M 51.749296 90.689555 A 1.20915 1.20915 0 0 0 50.492008 91.669857 A 1.20915 1.20915 0 0 0 51.451123 93.084241 L 51.615454 93.115247 L 51.872803 93.172091 L 52.129118 93.234619 L 52.382849 93.302832 L 52.632963 93.376729 L 52.88101 93.458895 L 53.12699 93.544678 L 53.369352 93.636662 L 53.609131 93.73433 L 53.845809 93.837683 L 54.079903 93.947237 L 54.31038 94.062476 L 54.53724 94.181848 L 54.761515 94.308455 L 54.982174 94.439714 L 55.201282 94.574072 L 55.414189 94.714632 L 55.625028 94.861393 L 55.666886 94.891882 L 56.495776 92.532336 L 56.238428 92.371106 L 55.968677 92.210909 L 55.691174 92.056396 L 55.412122 91.910152 L 55.128935 91.769592 L 54.841614 91.634717 L 54.550675 91.507593 L 54.255603 91.38667 L 53.956913 91.273499 L 53.656156 91.168079 L 53.351782 91.068343 L 53.042757 90.976359 L 52.730632 90.892643 L 52.415922 90.816162 L 52.099662 90.745882 L 51.906392 90.709192 A 1.20915 1.20915 0 0 0 51.749296 90.689555 z M 162.77301 90.689555 A 1.20915 1.20915 0 0 0 161.51572 91.669857 A 1.20915 1.20915 0 0 0 162.47484 93.084241 L 162.63865 93.115247 L 162.89652 93.172091 L 163.15232 93.234619 L 163.4045 93.302832 L 163.65616 93.376729 L 163.90421 93.458895 L 164.15019 93.544678 L 164.39255 93.636662 L 164.63285 93.73433 L 164.86901 93.837683 L 165.10362 93.947237 L 165.33409 94.062476 L 165.56044 94.181848 L 165.78523 94.308455 L 166.00589 94.439714 L 166.22448 94.574072 L 166.43739 94.714632 L 166.64823 94.861393 L 166.85545 95.011772 L 167.05854 95.167834 L 167.25801 95.328031 L 167.45334 95.492362 L 167.64248 95.661861 L 167.83007 95.836011 L 168.01352 96.013778 L 168.12514 96.129016 A 1.20915 1.20915 0 0 0 169.83408 96.150203 A 1.20915 1.20915 0 0 0 169.85527 94.439714 L 169.72246 94.304838 L 169.49818 94.08573 L 169.26977 93.872823 L 169.03516 93.66405 L 168.79693 93.463029 L 168.5525 93.265625 L 168.30291 93.074422 L 168.05072 92.890454 L 167.79286 92.711137 L 167.52931 92.539054 L 167.26163 92.371106 L 166.99239 92.210909 L 166.71489 92.056396 L 166.43532 91.910152 L 166.15213 91.769592 L 165.86533 91.634717 L 165.57439 91.507593 L 165.27932 91.38667 L 164.98063 91.273499 L 164.67987 91.168079 L 164.37498 91.068343 L 164.06647 90.976359 L 163.75383 90.892643 L 163.43964 90.816162 L 163.12286 90.745882 L 162.92959 90.709192 A 1.20915 1.20915 0 0 0 162.77301 90.689555 z M 155.55795 91.531881 A 1.20915 1.20915 0 0 0 155.09958 91.644535 L 154.83396 91.769592 L 154.55077 91.910152 L 154.27172 92.056396 L 153.99628 92.210909 L 153.72447 92.371106 L 153.45678 92.539054 L 153.41079 92.569027 L 154.2433 94.930123 L 154.33787 94.861393 L 154.54871 94.714632 L 154.76161 94.574072 L 154.98072 94.439197 L 155.20138 94.308455 L 155.42566 94.181848 L 155.65251 94.062476 L 155.88299 93.947237 L 156.12329 93.836133 A 1.20915 1.20915 0 0 0 156.70723 92.228479 A 1.20915 1.20915 0 0 0 155.55795 91.531881 z M 44.534233 91.532397 A 1.20915 1.20915 0 0 0 44.076379 91.644535 L 43.810763 91.769592 L 43.527576 91.910152 L 43.248006 92.056396 L 42.972571 92.210909 L 42.70127 92.371106 L 42.433586 92.539054 L 42.172103 92.711137 L 41.914237 92.890454 L 41.659989 93.074422 L 41.410392 93.265625 L 41.165963 93.463029 L 40.927734 93.66405 L 40.693123 93.872823 L 40.464714 94.08573 L 40.240438 94.304838 L 40.02133 94.527563 L 39.808423 94.75804 L 39.601717 94.992135 L 39.398629 95.230363 L 39.201225 95.474792 L 39.011572 95.722839 L 38.826054 95.976571 L 38.646737 96.234436 L 38.474654 96.497986 L 38.308773 96.76567 L 38.230225 96.896411 A 1.20915 1.20915 0 0 0 38.656038 98.552641 A 1.20915 1.20915 0 0 0 40.312268 98.126827 L 40.374797 98.021407 L 40.509672 97.802816 L 40.650232 97.589909 L 40.796993 97.379069 L 40.947371 97.171847 L 41.103434 96.968758 L 41.263631 96.769287 L 41.427962 96.574467 L 41.597461 96.384814 L 41.771611 96.197229 L 41.950928 96.013778 L 42.132829 95.836011 L 42.320414 95.661861 L 42.511617 95.492362 L 42.706954 95.328031 L 42.904358 95.167834 L 43.107446 95.011772 L 43.314669 94.861393 L 43.525509 94.714632 L 43.738416 94.574072 L 43.957007 94.439714 L 44.177665 94.308455 L 44.402458 94.181848 L 44.6288 94.062476 L 44.859277 93.947237 L 45.099573 93.836133 A 1.20915 1.20915 0 0 0 45.683516 92.228479 A 1.20915 1.20915 0 0 0 44.999837 91.603711 A 1.20915 1.20915 0 0 0 44.534233 91.532397 z M 172.1497 100.45898 A 1.20915 1.20915 0 0 0 171.9926 100.47449 L 171.99209 100.47449 A 1.20915 1.20915 0 0 0 170.99783 101.8651 L 171.00403 101.91213 L 171.04124 102.17774 L 171.07225 102.44543 L 171.0955 102.71466 L 171.11359 102.98648 L 171.1234 103.25985 L 171.12754 103.51978 L 171.12754 103.54872 L 171.1234 103.80865 L 171.11359 104.08202 L 171.0955 104.35332 L 171.07225 104.62307 L 171.04124 104.89076 L 171.00403 105.15431 L 170.96114 105.41785 L 170.91205 105.67779 L 170.85572 105.93772 L 170.79319 106.19352 L 170.72498 106.44518 L 170.65057 106.69736 L 170.5684 106.94541 L 170.48262 107.18932 L 170.39063 107.43375 L 170.29296 107.67198 L 170.18961 107.91021 L 170.08006 108.14275 L 169.96482 108.37478 L 169.8439 108.60164 L 169.71884 108.82643 L 169.5881 109.04709 L 169.45322 109.26568 L 169.31266 109.47859 L 169.19174 109.65429 A 1.20915 1.20915 0 0 0 169.49611 111.33584 A 1.20915 1.20915 0 0 0 171.17767 111.03147 L 171.31667 110.83199 L 171.48824 110.57051 L 171.65619 110.30283 L 171.81639 110.03153 L 171.9709 109.75609 L 172.11714 109.47652 L 172.25822 109.19333 L 172.39258 108.90601 L 172.5197 108.61508 L 172.64062 108.32052 L 172.75431 108.02131 L 172.85973 107.72056 L 172.95895 107.41412 L 173.05094 107.10767 L 173.13517 106.79503 L 173.21113 106.48032 L 173.28141 106.16406 L 173.34187 105.84367 L 173.39665 105.51966 L 173.44161 105.19513 L 173.47882 104.86698 L 173.50827 104.53729 L 173.52946 104.20501 L 173.54135 103.87118 L 173.54548 103.54872 A 1.20915 1.20915 0 0 0 173.53153 103.53322 A 1.20915 1.20915 0 0 0 173.54548 103.51978 L 173.54135 103.19732 L 173.52946 102.86349 L 173.50827 102.53121 L 173.47882 102.201 L 173.44161 101.87285 L 173.39665 101.54677 L 173.38322 101.47081 A 1.20915 1.20915 0 0 0 172.1497 100.45898 z M 37.714494 103.26191 A 1.20915 1.20915 0 0 0 37.556881 103.26553 A 1.20915 1.20915 0 0 0 36.458757 104.57605 L 36.484595 104.86698 L 36.521285 105.19513 L 36.568311 105.51966 L 36.621021 105.84367 L 36.681482 106.16406 L 36.751762 106.48032 L 36.828243 106.79503 L 36.911959 107.10767 L 37.003943 107.41412 L 37.103678 107.72056 L 37.209098 108.02131 L 37.32227 108.32052 L 37.443193 108.61508 L 37.570317 108.90601 L 37.705192 109.19333 L 37.845752 109.47652 L 37.994063 109.75609 L 38.146509 110.03101 L 38.308773 110.30283 L 38.474654 110.57051 L 38.64622 110.83199 L 38.826054 111.08986 L 39.011572 111.34359 L 39.201225 111.59371 L 39.398629 111.83813 L 39.42395 111.86707 A 1.20915 1.20915 0 0 0 41.128756 112.0097 A 1.20915 1.20915 0 0 0 41.271383 110.30645 L 41.263631 110.29663 L 41.103434 110.09767 L 40.947371 109.89613 L 40.796993 109.68943 L 40.650232 109.47807 L 40.509672 109.26517 L 40.374797 109.04657 L 40.244055 108.82592 L 40.118998 108.60112 L 39.998075 108.37478 L 39.884904 108.14224 L 39.77535 107.90969 L 39.671997 107.67146 L 39.572262 107.43324 L 39.480278 107.18932 L 39.394495 106.94489 L 39.314396 106.69685 L 39.238432 106.44518 L 39.169702 106.193 L 39.107174 105.9372 L 39.052913 105.67727 L 39.001754 105.41785 L 38.958862 105.15431 L 38.921655 104.89024 L 38.890649 104.62255 L 38.867395 104.36314 A 1.20915 1.20915 0 0 0 37.714494 103.26191 z M 164.57393 113.47266 A 1.20915 1.20915 0 0 0 164.1073 113.53881 L 163.90421 113.6096 L 163.65616 113.6897 L 163.4045 113.76567 L 163.15232 113.83388 L 162.89652 113.89641 L 162.63865 113.95118 L 162.37717 114.00183 L 162.11517 114.04472 L 161.84955 114.08193 L 161.58187 114.11345 L 161.31263 114.1367 L 161.04082 114.15427 L 161.02273 114.15479 L 161.85524 116.5164 L 162.15444 116.4823 L 162.48052 116.43579 L 162.80298 116.38308 L 163.12286 116.32055 L 163.43964 116.25182 L 163.75383 116.17585 L 164.06647 116.09162 L 164.37498 116.00015 L 164.67987 115.90042 L 164.91035 115.81825 A 1.20915 1.20915 0 0 0 165.64829 114.27726 A 1.20915 1.20915 0 0 0 164.57393 113.47266 z M 46.351176 113.7512 A 1.20915 1.20915 0 0 0 45.181738 114.64468 A 1.20915 1.20915 0 0 0 46.031299 116.12676 L 46.209066 116.17585 L 46.523258 116.25182 L 46.840035 116.32055 L 47.159912 116.38308 L 47.48444 116.43579 L 47.808451 116.4823 L 48.073035 116.51227 L 48.901925 114.15272 L 48.65026 114.1367 L 48.381026 114.11345 L 48.113342 114.08193 L 47.849792 114.04472 L 47.585726 114.00183 L 47.32631 113.95118 L 47.066378 113.89641 L 46.810579 113.83388 L 46.663818 113.79305 A 1.20915 1.20915 0 0 0 46.351176 113.7512 z " /><path
       id="path7"
       style="font-size:178.963px;font-family:'Dela Gothic One';-inkscape-font-specification:'Dela Gothic One, Normal';fill:url(#radialGradient9);stroke-width:10.1561;stroke-linecap:round"
       d="M 74.934444 40.036316 L 56.495776 92.532336 L 56.506112 92.539054 L 56.769661 92.711137 L 57.027527 92.890454 L 57.279191 93.074422 L 57.529305 93.265625 L 57.773218 93.463029 L 58.011963 93.66405 L 58.246057 93.872823 L 58.474467 94.08573 L 58.699259 94.304838 L 58.832068 94.439714 A 1.20915 1.20915 0 0 1 58.810364 96.150203 A 1.20915 1.20915 0 0 1 57.101424 96.129016 L 56.99032 96.013778 L 56.806868 95.836011 L 56.619283 95.661861 L 56.429631 95.492362 L 56.234294 95.328031 L 56.035339 95.167834 L 55.832251 95.011772 L 55.666886 94.891882 L 48.901925 114.15272 L 48.922078 114.15427 L 49.195447 114.16409 L 49.470882 114.16823 L 49.74425 114.16409 L 50.017619 114.15427 L 50.28892 114.1367 L 50.558671 114.11345 L 50.826355 114.08193 L 51.091972 114.04472 L 51.353455 114.00183 L 51.615454 113.95118 L 51.872803 113.89641 L 52.129118 113.83388 L 52.382849 113.76567 L 52.632963 113.6897 L 52.88101 113.6096 L 53.084098 113.53881 A 1.20915 1.20915 0 0 1 53.550736 113.47266 A 1.20915 1.20915 0 0 1 54.62509 114.27726 A 1.20915 1.20915 0 0 1 53.886633 115.81825 L 53.656156 115.90042 L 53.351782 116.00015 L 53.042757 116.09162 L 52.730632 116.17585 L 52.415922 116.25182 L 52.099662 116.32055 L 51.779268 116.38308 L 51.456807 116.43579 L 51.130729 116.4823 L 50.802584 116.5195 L 50.472888 116.54896 L 50.140609 116.57015 L 49.806779 116.58203 L 49.470882 116.58617 L 49.132918 116.58203 L 48.798572 116.57015 L 48.466809 116.54896 L 48.136597 116.5195 L 48.073035 116.51227 L 29.298987 169.96327 L 180.70163 169.96327 L 161.85524 116.5164 L 161.8263 116.5195 L 161.49609 116.54896 L 161.16381 116.57015 L 160.82998 116.58203 L 160.49408 116.58617 L 160.15612 116.58203 L 159.82229 116.57015 L 159.49001 116.54896 L 159.16031 116.5195 L 158.83217 116.4823 L 158.50764 116.43579 L 158.18363 116.38308 L 157.86323 116.32055 L 157.54697 116.25182 L 157.23226 116.17585 L 157.0545 116.12676 A 1.20915 1.20915 0 0 1 156.20287 114.64468 A 1.20915 1.20915 0 0 1 157.68753 113.79305 L 157.83378 113.83388 L 158.09009 113.89641 L 158.34951 113.95118 L 158.60944 114.00183 L 158.87299 114.04472 L 159.13654 114.08193 L 159.40422 114.11345 L 159.67397 114.1367 L 159.94528 114.15427 L 160.21864 114.16409 L 160.49408 114.16823 L 160.76745 114.16409 L 161.02273 114.15479 L 154.2433 94.930123 L 154.13064 95.011772 L 153.92756 95.167834 L 153.73067 95.328031 L 153.53533 95.492362 L 153.34361 95.661861 L 153.15603 95.836011 L 152.97464 96.013778 L 152.79481 96.197229 L 152.62118 96.384814 L 152.45116 96.574467 L 152.28735 96.769287 L 152.12715 96.968758 L 151.97057 97.171847 L 151.82019 97.379069 L 151.67395 97.589909 L 151.53339 97.802816 L 151.39851 98.021407 L 151.33598 98.126827 A 1.20915 1.20915 0 0 1 149.67975 98.552641 A 1.20915 1.20915 0 0 1 149.25394 96.896411 L 149.33197 96.76567 L 149.49785 96.497986 L 149.66993 96.234436 L 149.84977 95.976571 L 150.03529 95.722839 L 150.22442 95.474792 L 150.42183 95.230363 L 150.62491 94.992135 L 150.83214 94.75804 L 151.04504 94.527563 L 151.26364 94.304838 L 151.48843 94.08573 L 151.71684 93.872823 L 151.95093 93.66405 L 152.18968 93.463029 L 152.43359 93.265625 L 152.6837 93.074422 L 152.93743 92.890454 L 153.1953 92.711137 L 153.41079 92.569027 L 134.88686 40.036316 L 74.934444 40.036316 z M 104.28407 68.312626 C 108.57919 81.436579 114.48541 98.915219 122.00186 120.7487 L 126.8336 134.88686 L 81.735063 134.88686 C 92.114916 105.41762 99.631035 83.226209 104.28407 68.312626 z M 61.125985 100.45898 A 1.20915 1.20915 0 0 1 62.359501 101.47029 L 62.372937 101.54677 L 62.417896 101.87285 L 62.455103 102.201 L 62.484558 102.53121 L 62.505745 102.86297 L 62.517631 103.19732 L 62.521248 103.51926 A 1.20915 1.20915 0 0 1 62.513497 103.52753 A 1.20915 1.20915 0 0 1 62.521248 103.54872 L 62.517631 103.87118 L 62.505745 104.20501 L 62.484558 104.53729 L 62.455103 104.86698 L 62.417896 105.19513 L 62.372937 105.51966 L 62.31816 105.84367 L 62.257699 106.16406 L 62.187419 106.48032 L 62.111454 106.79503 L 62.027222 107.10767 L 61.935754 107.41412 L 61.836019 107.72056 L 61.730599 108.02131 L 61.617428 108.32052 L 61.495988 108.61508 L 61.369381 108.90601 L 61.234505 109.19333 L 61.093945 109.47652 L 60.947184 109.75609 L 60.793188 110.03153 L 60.632992 110.30283 L 60.465043 110.57051 L 60.292961 110.83199 L 60.154468 111.03147 A 1.20915 1.20915 0 0 1 58.472917 111.33584 A 1.20915 1.20915 0 0 1 58.168026 109.65429 L 58.288949 109.47859 L 58.429508 109.26568 L 58.564384 109.04709 L 58.695125 108.82643 L 58.820182 108.60164 L 58.941622 108.37478 L 59.05686 108.14275 L 59.165898 107.91021 L 59.269767 107.67198 L 59.367436 107.43375 L 59.458903 107.18932 L 59.545203 106.94541 L 59.626851 106.69736 L 59.701265 106.44518 L 59.769478 106.19352 L 59.832007 105.93772 L 59.888851 105.67779 L 59.937427 105.41785 L 59.980318 105.15431 L 60.017525 104.89076 L 60.049048 104.62307 L 60.072302 104.35332 L 60.089872 104.08202 L 60.099691 103.80865 L 60.103825 103.54872 L 60.103825 103.51978 L 60.099691 103.25985 L 60.089872 102.98648 L 60.072302 102.71466 L 60.049048 102.44543 L 60.017525 102.17774 L 59.980318 101.91213 L 59.974634 101.8651 A 1.20915 1.20915 0 0 1 60.968888 100.47449 A 1.20915 1.20915 0 0 1 61.125985 100.45898 z M 148.73821 103.26191 A 1.20915 1.20915 0 0 1 149.89059 104.36314 L 149.91385 104.62255 L 149.94485 104.89024 L 149.98206 105.15431 L 150.02495 105.41785 L 150.07611 105.67727 L 150.13089 105.9372 L 150.19342 106.193 L 150.26163 106.44518 L 150.33759 106.69685 L 150.41769 106.94489 L 150.50399 107.18932 L 150.59546 107.43324 L 150.69519 107.67146 L 150.79855 107.90969 L 150.9081 108.14224 L 151.02127 108.37478 L 151.14271 108.60112 L 151.26725 108.82592 L 151.39851 109.04657 L 151.53287 109.26517 L 151.67395 109.47807 L 151.82019 109.68943 L 151.97057 109.89613 L 152.12663 110.09767 L 152.28683 110.29663 L 152.2951 110.30645 A 1.20915 1.20915 0 0 1 152.15247 112.0097 A 1.20915 1.20915 0 0 1 150.44715 111.86707 L 150.42183 111.83813 L 150.22442 111.59371 L 150.03529 111.34359 L 149.84977 111.08986 L 149.66993 110.83199 L 149.49837 110.57051 L 149.33197 110.30283 L 149.17022 110.03101 L 149.01778 109.75609 L 148.86947 109.47652 L 148.72839 109.19333 L 148.59403 108.90601 L 148.46691 108.61508 L 148.34598 108.32052 L 148.2323 108.02131 L 148.12688 107.72056 L 148.02766 107.41412 L 147.93567 107.10767 L 147.85144 106.79503 L 147.77548 106.48032 L 147.7052 106.16406 L 147.64473 105.84367 L 147.59202 105.51966 L 147.545 105.19513 L 147.50779 104.86698 L 147.48247 104.57605 A 1.20915 1.20915 0 0 1 148.58008 103.26553 A 1.20915 1.20915 0 0 1 148.73821 103.26191 z " /></g></svg>
